<svg width="194" height="132" viewBox="0 0 194 132" fill="none" xmlns="http://www.w3.org/2000/svg">
<path d="M60.4168 68.124C58.7027 68.124 57.1064 67.8133 55.6279 67.1919C54.1709 66.5705 52.896 65.7027 51.8033 64.5886C50.7105 63.4744 49.8534 62.1673 49.2321 60.6675C48.6321 59.1676 48.3321 57.5284 48.3321 55.75C48.3321 53.9716 48.6321 52.3325 49.2321 50.8326C49.832 49.3113 50.6784 48.0043 51.7711 46.9115C52.8639 45.7973 54.1388 44.9402 55.5958 44.3403C57.0742 43.7189 58.6812 43.4082 60.4168 43.4082C62.1524 43.4082 63.7058 43.6975 65.0771 44.276C66.4699 44.8545 67.6483 45.6259 68.6125 46.5901C69.5767 47.5543 70.2624 48.6256 70.6695 49.8041L66.2663 51.9253C65.8592 50.7683 65.1414 49.8148 64.1129 49.0649C63.1059 48.2935 61.8738 47.9078 60.4168 47.9078C59.0027 47.9078 57.7599 48.2399 56.6886 48.9042C55.6172 49.5684 54.7816 50.4898 54.1816 51.6682C53.6031 52.8253 53.3139 54.1859 53.3139 55.75C53.3139 57.3142 53.6031 58.6855 54.1816 59.864C54.7816 61.0424 55.6172 61.9638 56.6886 62.628C57.7599 63.2922 59.0027 63.6243 60.4168 63.6243C61.8738 63.6243 63.1059 63.2494 64.1129 62.4994C65.1414 61.7281 65.8592 60.7639 66.2663 59.6068L70.6695 61.7281C70.2624 62.9066 69.5767 63.9779 68.6125 64.9421C67.6483 65.9063 66.4699 66.6777 65.0771 67.2562C63.7058 67.8347 62.1524 68.124 60.4168 68.124ZM73.5127 67.7383V50.1898H78.0123V54.4001L77.6909 53.7895C78.0765 52.311 78.7086 51.3147 79.5871 50.8004C80.4871 50.2648 81.5477 49.9969 82.769 49.9969H83.7975V54.1752H82.2869C81.1084 54.1752 80.1549 54.5394 79.4264 55.2679C78.6979 55.975 78.3337 56.9821 78.3337 58.2891V67.7383H73.5127ZM88.6424 74.8734C88.1281 74.8734 87.6246 74.8305 87.1318 74.7448C86.6604 74.6591 86.2426 74.5198 85.8783 74.327V70.3738C86.1783 70.4595 86.5318 70.5345 86.9389 70.5988C87.346 70.663 87.721 70.6952 88.0638 70.6952C89.0066 70.6952 89.6816 70.4702 90.0887 70.0202C90.4958 69.5703 90.8279 69.056 91.085 68.4775L92.2742 65.7456L92.2099 69.7631L84.4963 50.1898H89.6708L94.7811 64.1064H92.8527L97.963 50.1898H103.138L95.6168 69.3774C95.1454 70.5988 94.5669 71.6165 93.8812 72.4307C93.1955 73.245 92.4135 73.8556 91.535 74.2627C90.6779 74.6698 89.7137 74.8734 88.6424 74.8734ZM105.245 74.1663V50.1898H109.744V53.5324L109.327 52.5681C109.905 51.6897 110.687 51.0147 111.673 50.5433C112.68 50.0505 113.826 49.8041 115.112 49.8041C116.783 49.8041 118.294 50.2112 119.644 51.0254C120.993 51.8396 122.065 52.9431 122.858 54.3359C123.65 55.7072 124.047 57.2499 124.047 58.964C124.047 60.6567 123.65 62.1995 122.858 63.5922C122.086 64.9849 121.026 66.0884 119.676 66.9026C118.326 67.7169 116.794 68.124 115.08 68.124C113.88 68.124 112.766 67.9097 111.737 67.4812C110.73 67.0312 109.916 66.3777 109.294 65.5206L110.066 64.5243V74.1663H105.245ZM114.501 63.785C115.401 63.785 116.194 63.5815 116.879 63.1744C117.565 62.7673 118.101 62.1995 118.486 61.471C118.872 60.7425 119.065 59.9068 119.065 58.964C119.065 58.0213 118.872 57.1963 118.486 56.4892C118.101 55.7607 117.565 55.1929 116.879 54.7858C116.194 54.3573 115.401 54.143 114.501 54.143C113.644 54.143 112.873 54.3466 112.187 54.7537C111.523 55.1608 110.998 55.7286 110.612 56.4571C110.248 57.1856 110.066 58.0213 110.066 58.964C110.066 59.9068 110.248 60.7425 110.612 61.471C110.998 62.1995 111.523 62.7673 112.187 63.1744C112.873 63.5815 113.644 63.785 114.501 63.785ZM135.009 67.9311C132.888 67.9311 131.238 67.3633 130.06 66.2277C128.903 65.0707 128.324 63.4636 128.324 61.4067V54.368H125.367V50.1898H125.528C126.428 50.1898 127.113 49.9648 127.585 49.5148C128.078 49.0649 128.324 48.3899 128.324 47.49V46.2044H133.145V50.1898H137.259V54.368H133.145V61.0853C133.145 61.6852 133.252 62.1888 133.467 62.5959C133.681 62.9815 134.013 63.2708 134.463 63.4636C134.913 63.6565 135.47 63.7529 136.134 63.7529C136.284 63.7529 136.456 63.7422 136.648 63.7208C136.841 63.6993 137.045 63.6779 137.259 63.6565V67.7383C136.938 67.7811 136.573 67.824 136.166 67.8668C135.759 67.9097 135.373 67.9311 135.009 67.9311ZM148.794 68.124C147.059 68.124 145.473 67.7276 144.037 66.9348C142.623 66.142 141.488 65.0599 140.63 63.6886C139.795 62.2959 139.377 60.721 139.377 58.964C139.377 57.1856 139.795 55.6107 140.63 54.2394C141.488 52.8681 142.623 51.7861 144.037 50.9933C145.473 50.2005 147.059 49.8041 148.794 49.8041C150.53 49.8041 152.105 50.2005 153.519 50.9933C154.933 51.7861 156.058 52.8681 156.893 54.2394C157.75 55.6107 158.179 57.1856 158.179 58.964C158.179 60.721 157.75 62.2959 156.893 63.6886C156.058 65.0599 154.933 66.142 153.519 66.9348C152.105 67.7276 150.53 68.124 148.794 68.124ZM148.794 63.785C149.673 63.785 150.433 63.5815 151.076 63.1744C151.74 62.7673 152.255 62.1995 152.619 61.471C153.004 60.7425 153.197 59.9068 153.197 58.964C153.197 58.0213 153.004 57.1963 152.619 56.4892C152.255 55.7607 151.74 55.1929 151.076 54.7858C150.433 54.3573 149.673 54.143 148.794 54.143C147.916 54.143 147.144 54.3573 146.48 54.7858C145.816 55.1929 145.291 55.7607 144.905 56.4892C144.541 57.1963 144.359 58.0213 144.359 58.964C144.359 59.9068 144.541 60.7425 144.905 61.471C145.291 62.1995 145.816 62.7673 146.48 63.1744C147.144 63.5815 147.916 63.785 148.794 63.785ZM57.7492 99.124C56.2493 99.124 54.8351 98.8561 53.5067 98.3205C52.1997 97.7634 51.064 96.9813 50.0998 95.9742C49.1571 94.9672 48.45 93.778 47.9786 92.4067L52.0604 90.5747C52.6603 91.8817 53.4853 92.9102 54.5352 93.6601C55.6065 94.4101 56.785 94.785 58.0706 94.785C58.7562 94.785 59.3455 94.6779 59.8383 94.4636C60.3311 94.2494 60.7168 93.9601 60.9953 93.5959C61.2739 93.2102 61.4132 92.7602 61.4132 92.246C61.4132 91.6889 61.2417 91.2175 60.8989 90.8318C60.5561 90.4247 60.0204 90.1033 59.2919 89.8676L54.5995 88.3249C52.6925 87.7035 51.2569 86.825 50.2927 85.6894C49.3285 84.5324 48.8464 83.1503 48.8464 81.5433C48.8464 80.1292 49.1892 78.8864 49.8749 77.8151C50.5819 76.7437 51.5569 75.9081 52.7996 75.3081C54.0638 74.7082 55.5101 74.4082 57.1385 74.4082C58.5741 74.4082 59.9026 74.6546 61.1239 75.1474C62.3452 75.6403 63.3951 76.3366 64.2736 77.2365C65.1736 78.1365 65.8485 79.2185 66.2985 80.4827L62.2488 82.3147C61.7988 81.2005 61.1239 80.3327 60.224 79.7113C59.3241 79.0685 58.2956 78.7471 57.1385 78.7471C56.4743 78.7471 55.8851 78.8543 55.3708 79.0685C54.8566 79.2828 54.4602 79.5935 54.1816 80.0006C53.9031 80.3863 53.7638 80.8362 53.7638 81.3505C53.7638 81.9076 53.9459 82.4004 54.3102 82.8289C54.6744 83.236 55.2208 83.5574 55.9493 83.7931L60.5454 85.2716C62.4738 85.8929 63.9094 86.7607 64.8522 87.8749C65.8164 88.9891 66.2985 90.3497 66.2985 91.9567C66.2985 93.3495 65.9342 94.5922 65.2057 95.685C64.4772 96.7563 63.4701 97.6027 62.1845 98.224C60.9203 98.824 59.4419 99.124 57.7492 99.124ZM75.7946 99.124C74.3804 99.124 73.1698 98.824 72.1628 98.224C71.1771 97.6027 70.4272 96.7456 69.913 95.6528C69.3987 94.5601 69.1416 93.2852 69.1416 91.8282V81.1898H73.9626V91.4425C73.9626 92.1067 74.0912 92.6959 74.3483 93.2102C74.6268 93.703 75.0125 94.0887 75.5053 94.3672C75.9982 94.6458 76.5553 94.785 77.1766 94.785C77.8194 94.785 78.3765 94.6458 78.8479 94.3672C79.3407 94.0887 79.7157 93.703 79.9728 93.2102C80.2514 92.6959 80.3906 92.1067 80.3906 91.4425V81.1898H85.2117V98.7383H80.712V95.2671L80.9692 96.0385C80.5621 97.0884 79.8978 97.8705 78.9765 98.3847C78.0766 98.8776 77.0159 99.124 75.7946 99.124ZM88.7353 98.7383V81.1898H93.2349V85.4644L92.7528 84.7573C93.0099 83.4074 93.6313 82.4111 94.6169 81.7683C95.6025 81.1255 96.781 80.8041 98.1523 80.8041C99.6093 80.8041 100.884 81.1791 101.977 81.929C103.091 82.6575 103.788 83.6431 104.066 84.8859L102.684 85.0145C103.263 83.5789 104.088 82.5182 105.159 81.8326C106.23 81.1469 107.484 80.8041 108.919 80.8041C110.183 80.8041 111.298 81.0826 112.262 81.6397C113.247 82.1968 114.019 82.9789 114.576 83.986C115.133 84.9716 115.412 86.1286 115.412 87.4571V98.7383H110.591V88.4856C110.591 87.7999 110.462 87.2107 110.205 86.7179C109.969 86.2251 109.626 85.8394 109.176 85.5608C108.726 85.2823 108.18 85.143 107.537 85.143C106.916 85.143 106.369 85.2823 105.898 85.5608C105.448 85.8394 105.095 86.2251 104.837 86.7179C104.602 87.2107 104.484 87.7999 104.484 88.4856V98.7383H99.6629V88.4856C99.6629 87.7999 99.5343 87.2107 99.2772 86.7179C99.0415 86.2251 98.6987 85.8394 98.2487 85.5608C97.7988 85.2823 97.2524 85.143 96.6096 85.143C95.9882 85.143 95.4418 85.2823 94.9704 85.5608C94.5205 85.8394 94.1669 86.2251 93.9098 86.7179C93.6741 87.2107 93.5563 87.7999 93.5563 88.4856V98.7383H88.7353ZM118.584 98.7383V81.1898H123.084V85.4644L122.602 84.7573C122.859 83.4074 123.48 82.4111 124.466 81.7683C125.451 81.1255 126.63 80.8041 128.001 80.8041C129.458 80.8041 130.733 81.1791 131.826 81.929C132.94 82.6575 133.636 83.6431 133.915 84.8859L132.533 85.0145C133.111 83.5789 133.936 82.5182 135.008 81.8326C136.079 81.1469 137.333 80.8041 138.768 80.8041C140.032 80.8041 141.146 81.0826 142.111 81.6397C143.096 82.1968 143.868 82.9789 144.425 83.986C144.982 84.9716 145.26 86.1286 145.26 87.4571V98.7383H140.439V88.4856C140.439 87.7999 140.311 87.2107 140.054 86.7179C139.818 86.2251 139.475 85.8394 139.025 85.5608C138.575 85.2823 138.029 85.143 137.386 85.143C136.765 85.143 136.218 85.2823 135.747 85.5608C135.297 85.8394 134.943 86.2251 134.686 86.7179C134.451 87.2107 134.333 87.7999 134.333 88.4856V98.7383H129.512V88.4856C129.512 87.7999 129.383 87.2107 129.126 86.7179C128.89 86.2251 128.548 85.8394 128.098 85.5608C127.648 85.2823 127.101 85.143 126.458 85.143C125.837 85.143 125.291 85.2823 124.819 85.5608C124.369 85.8394 124.016 86.2251 123.759 86.7179C123.523 87.2107 123.405 87.7999 123.405 88.4856V98.7383H118.584ZM156.886 99.124C155.022 99.124 153.404 98.7169 152.033 97.9026C150.661 97.067 149.601 95.9528 148.851 94.5601C148.101 93.1673 147.726 91.6246 147.726 89.9319C147.726 88.1749 148.112 86.6107 148.883 85.2394C149.676 83.8681 150.736 82.7861 152.065 81.9933C153.393 81.2005 154.893 80.8041 156.564 80.8041C157.957 80.8041 159.189 81.0291 160.261 81.479C161.332 81.9076 162.232 82.5182 162.96 83.311C163.71 84.1038 164.278 85.0252 164.664 86.0751C165.049 87.1036 165.242 88.2285 165.242 89.4498C165.242 89.7926 165.221 90.1354 165.178 90.4783C165.157 90.7997 165.103 91.0782 165.017 91.3139H151.872V87.7785H162.285L160.003 89.4498C160.218 88.5284 160.207 87.7142 159.971 87.0071C159.736 86.2786 159.318 85.7108 158.718 85.3037C158.139 84.8752 157.422 84.6609 156.564 84.6609C155.729 84.6609 155.011 84.8645 154.411 85.2716C153.811 85.6787 153.361 86.2786 153.061 87.0714C152.761 87.8642 152.643 88.8284 152.708 89.964C152.622 90.9497 152.74 91.8174 153.061 92.5674C153.383 93.3173 153.875 93.9066 154.54 94.3351C155.204 94.7422 156.007 94.9457 156.95 94.9457C157.807 94.9457 158.536 94.7743 159.136 94.4315C159.757 94.0887 160.239 93.6173 160.582 93.0173L164.439 94.8493C164.096 95.7064 163.55 96.4563 162.8 97.0991C162.071 97.7419 161.203 98.2455 160.196 98.6097C159.189 98.9525 158.086 99.124 156.886 99.124ZM168.081 98.7383V81.1898H172.581V85.4001L172.259 84.7895C172.645 83.311 173.277 82.3147 174.156 81.8004C175.056 81.2648 176.116 80.9969 177.338 80.9969H178.366V85.1752H176.855C175.677 85.1752 174.723 85.5394 173.995 86.2679C173.266 86.975 172.902 87.9821 172.902 89.2891V98.7383H168.081ZM49.0392 129.738V105.794H54.0209V125.399H64.1451V129.738H49.0392ZM71.694 130.124C70.4298 130.124 69.337 129.92 68.4157 129.513C67.4943 129.106 66.7873 128.528 66.2944 127.778C65.8016 127.006 65.5552 126.096 65.5552 125.046C65.5552 124.06 65.7802 123.192 66.2302 122.442C66.6801 121.671 67.3658 121.028 68.2871 120.514C69.2299 120 70.3977 119.636 71.7904 119.421L77.1578 118.554V122.089L72.6582 122.892C71.9725 123.021 71.4476 123.246 71.0833 123.567C70.7191 123.867 70.5369 124.307 70.5369 124.885C70.5369 125.421 70.7405 125.839 71.1476 126.139C71.5547 126.439 72.0582 126.589 72.6582 126.589C73.451 126.589 74.1473 126.417 74.7473 126.074C75.3472 125.731 75.8079 125.271 76.1293 124.692C76.4721 124.092 76.6436 123.439 76.6436 122.732V118.168C76.6436 117.504 76.3757 116.947 75.8401 116.497C75.3258 116.047 74.6187 115.822 73.7188 115.822C72.8617 115.822 72.1011 116.057 71.4369 116.529C70.7941 117 70.3227 117.621 70.0227 118.393L66.1659 116.561C66.5087 115.575 67.0551 114.729 67.805 114.022C68.555 113.315 69.4549 112.768 70.5048 112.383C71.5547 111.997 72.701 111.804 73.9438 111.804C75.4222 111.804 76.7293 112.072 77.8649 112.608C79.0005 113.143 79.879 113.893 80.5004 114.857C81.1432 115.8 81.4646 116.904 81.4646 118.168V129.738H76.965V126.91L78.0577 126.717C77.5435 127.488 76.9757 128.131 76.3543 128.646C75.7329 129.138 75.0365 129.503 74.2652 129.738C73.4938 129.995 72.6368 130.124 71.694 130.124ZM94.8351 130.124C93.6352 130.124 92.521 129.91 91.4925 129.481C90.4855 129.031 89.6713 128.378 89.0499 127.521L89.4999 126.524V129.738H85.0002V105.408H89.8213V115.532L89.082 114.568C89.6606 113.69 90.4426 113.015 91.4283 112.543C92.4353 112.051 93.5816 111.804 94.8672 111.804C96.5385 111.804 98.0491 112.211 99.399 113.025C100.749 113.84 101.82 114.943 102.613 116.336C103.406 117.707 103.802 119.25 103.802 120.964C103.802 122.657 103.406 124.199 102.613 125.592C101.842 126.985 100.781 128.088 99.4311 128.903C98.0813 129.717 96.5492 130.124 94.8351 130.124ZM94.2566 125.785C95.1565 125.785 95.9493 125.581 96.635 125.174C97.3206 124.767 97.8563 124.199 98.242 123.471C98.6276 122.742 98.8205 121.907 98.8205 120.964C98.8205 120.021 98.6276 119.196 98.242 118.489C97.8563 117.761 97.3206 117.193 96.635 116.786C95.9493 116.357 95.1565 116.143 94.2566 116.143C93.3995 116.143 92.6282 116.347 91.9425 116.754C91.2783 117.161 90.7533 117.729 90.3676 118.457C90.0034 119.186 89.8213 120.021 89.8213 120.964C89.8213 121.907 90.0034 122.742 90.3676 123.471C90.7533 124.199 91.2783 124.767 91.9425 125.174C92.6282 125.581 93.3995 125.785 94.2566 125.785ZM111.983 129.738V125.881L118.411 119.261C119.675 117.954 120.629 116.925 121.272 116.175C121.936 115.404 122.386 114.761 122.621 114.247C122.879 113.733 123.007 113.229 123.007 112.736C123.007 111.858 122.718 111.172 122.139 110.679C121.582 110.165 120.875 109.908 120.018 109.908C119.14 109.908 118.358 110.165 117.672 110.679C116.986 111.172 116.483 111.933 116.161 112.961L111.822 111.547C112.08 110.304 112.615 109.222 113.429 108.301C114.244 107.379 115.229 106.672 116.386 106.18C117.543 105.665 118.754 105.408 120.018 105.408C121.604 105.408 122.996 105.687 124.196 106.244C125.396 106.801 126.328 107.583 126.993 108.59C127.657 109.597 127.989 110.776 127.989 112.125C127.989 112.983 127.839 113.829 127.539 114.665C127.239 115.479 126.778 116.314 126.157 117.171C125.557 118.007 124.775 118.918 123.811 119.903L118.315 125.56H128.214V129.738H111.983ZM141.028 130.124C139.121 130.124 137.439 129.61 135.982 128.581C134.547 127.553 133.422 126.106 132.608 124.242C131.793 122.378 131.386 120.214 131.386 117.75C131.386 115.265 131.783 113.1 132.575 111.258C133.39 109.415 134.514 107.979 135.95 106.951C137.407 105.922 139.089 105.408 140.996 105.408C142.946 105.408 144.639 105.922 146.074 106.951C147.531 107.979 148.656 109.426 149.449 111.29C150.263 113.133 150.67 115.286 150.67 117.75C150.67 120.214 150.263 122.378 149.449 124.242C148.656 126.085 147.531 127.531 146.074 128.581C144.639 129.61 142.957 130.124 141.028 130.124ZM141.06 125.624C142.046 125.624 142.882 125.314 143.567 124.692C144.253 124.071 144.778 123.171 145.142 121.993C145.506 120.814 145.689 119.4 145.689 117.75C145.689 116.1 145.506 114.697 145.142 113.54C144.778 112.361 144.242 111.461 143.535 110.84C142.85 110.219 142.003 109.908 140.996 109.908C140.01 109.908 139.175 110.219 138.489 110.84C137.804 111.461 137.279 112.361 136.914 113.54C136.55 114.697 136.368 116.1 136.368 117.75C136.368 119.378 136.55 120.782 136.914 121.96C137.279 123.139 137.804 124.049 138.489 124.692C139.196 125.314 140.053 125.624 141.06 125.624ZM153.633 129.738V125.881L160.061 119.261C161.326 117.954 162.279 116.925 162.922 116.175C163.586 115.404 164.036 114.761 164.272 114.247C164.529 113.733 164.657 113.229 164.657 112.736C164.657 111.858 164.368 111.172 163.79 110.679C163.233 110.165 162.526 109.908 161.668 109.908C160.79 109.908 160.008 110.165 159.322 110.679C158.637 111.172 158.133 111.933 157.812 112.961L153.473 111.547C153.73 110.304 154.266 109.222 155.08 108.301C155.894 107.379 156.88 106.672 158.037 106.18C159.194 105.665 160.404 105.408 161.668 105.408C163.254 105.408 164.647 105.687 165.847 106.244C167.047 106.801 167.979 107.583 168.643 108.59C169.307 109.597 169.639 110.776 169.639 112.125C169.639 112.983 169.489 113.829 169.189 114.665C168.889 115.479 168.429 116.314 167.807 117.171C167.207 118.007 166.425 118.918 165.461 119.903L159.965 125.56H169.864V129.738H153.633ZM180.814 130.124C179.486 130.124 178.222 129.878 177.022 129.385C175.822 128.87 174.804 128.153 173.969 127.231C173.133 126.31 172.576 125.228 172.297 123.985L176.7 122.507C177.065 123.535 177.6 124.317 178.307 124.853C179.015 125.367 179.85 125.624 180.814 125.624C181.607 125.624 182.282 125.474 182.839 125.174C183.418 124.874 183.868 124.457 184.189 123.921C184.511 123.364 184.671 122.721 184.671 121.993C184.671 121.264 184.511 120.643 184.189 120.128C183.889 119.593 183.45 119.186 182.871 118.907C182.314 118.607 181.629 118.457 180.814 118.457C180.343 118.457 179.872 118.511 179.4 118.618C178.929 118.725 178.5 118.875 178.115 119.068L176.958 116.657L183.096 109.972H173.744V105.794H188.689V109.651L182.389 116.818L182.55 114.793C183.986 114.793 185.228 115.093 186.278 115.693C187.35 116.272 188.175 117.086 188.753 118.136C189.353 119.186 189.653 120.407 189.653 121.8C189.653 123.385 189.267 124.81 188.496 126.074C187.725 127.338 186.675 128.335 185.346 129.063C184.018 129.77 182.507 130.124 180.814 130.124Z" fill="white"/>
<path d="M0.169678 0H97.3143L131.538 34.2246H34.3936V131.369L0.169678 97.1446V0Z" fill="white"/>
</svg>
