<svg width="650" height="252" viewBox="0 0 650 252" fill="none" xmlns="http://www.w3.org/2000/svg">
<path d="M125.241 184.861C114.709 184.861 105.203 182.485 96.7258 177.732C88.3767 172.851 81.6973 166.236 76.6878 157.887C71.8068 149.538 69.3663 140.161 69.3663 129.757C69.3663 119.352 71.8068 110.04 76.6878 101.819C81.5689 93.47 88.2482 86.9191 96.7258 82.1665C105.203 77.4139 114.709 75.0376 125.241 75.0376C133.077 75.0376 140.334 76.3863 147.014 79.0838C153.693 81.7812 159.409 85.5704 164.161 90.4515C168.914 95.2041 172.318 100.856 174.373 107.407L149.326 118.196C147.527 112.93 144.445 108.755 140.077 105.673C135.838 102.59 130.893 101.048 125.241 101.048C120.232 101.048 115.736 102.269 111.754 104.709C107.901 107.15 104.818 110.554 102.506 114.921C100.322 119.288 99.2306 124.298 99.2306 129.949C99.2306 135.601 100.322 140.611 102.506 144.978C104.818 149.345 107.901 152.749 111.754 155.19C115.736 157.63 120.232 158.85 125.241 158.85C131.022 158.85 136.031 157.309 140.27 154.226C144.509 151.143 147.527 146.969 149.326 141.703L174.373 152.685C172.446 158.85 169.107 164.374 164.354 169.255C159.601 174.136 153.886 177.989 147.206 180.815C140.527 183.513 133.205 184.861 125.241 184.861ZM232.624 184.861C221.063 184.861 210.98 182.164 202.374 176.769C193.896 171.246 188.116 163.86 185.033 154.612L206.227 144.593C208.925 150.244 212.586 154.676 217.21 157.887C221.834 161.098 226.972 162.704 232.624 162.704C236.734 162.704 239.881 161.869 242.065 160.199C244.248 158.529 245.34 156.217 245.34 153.263C245.34 151.722 244.955 150.437 244.184 149.409C243.413 148.253 242.257 147.226 240.716 146.327C239.174 145.428 237.248 144.657 234.936 144.015L217.017 139.005C208.411 136.565 201.796 132.647 197.172 127.252C192.548 121.729 190.235 115.242 190.235 107.792C190.235 101.241 191.905 95.5252 195.245 90.6442C198.585 85.7631 203.273 81.9739 209.31 79.2764C215.347 76.4506 222.283 75.0376 230.119 75.0376C240.395 75.0376 249.386 77.4782 257.093 82.3592C264.928 87.1118 270.452 93.8554 273.663 102.59L252.276 112.609C250.735 108.242 247.909 104.774 243.799 102.205C239.817 99.5071 235.257 98.1584 230.119 98.1584C226.394 98.1584 223.439 98.9291 221.256 100.47C219.201 102.012 218.173 104.131 218.173 106.829C218.173 108.242 218.558 109.526 219.329 110.682C220.1 111.838 221.32 112.866 222.99 113.765C224.788 114.664 226.972 115.499 229.541 116.27L246.303 121.279C255.038 123.848 261.717 127.766 266.341 133.032C270.965 138.17 273.278 144.528 273.278 152.107C273.278 158.658 271.544 164.374 268.075 169.255C264.736 174.136 260.047 177.989 254.01 180.815C247.973 183.513 240.844 184.861 232.624 184.861ZM290.55 182.549V36.6957H319.451V182.549H290.55Z" fill="black"/>
<path d="M355.02 182.549V159.428L393.554 119.738C401.133 111.902 406.849 105.737 410.702 101.241C414.684 96.617 417.382 92.7636 418.795 89.6808C420.336 86.598 421.107 83.5795 421.107 80.6252C421.107 75.3588 419.373 71.2484 415.904 68.2941C412.565 65.2113 408.326 63.6699 403.188 63.6699C397.922 63.6699 393.233 65.2113 389.123 68.2941C385.013 71.2484 381.994 75.8083 380.067 81.9739L354.056 73.4962C355.598 66.0462 358.809 59.5596 363.69 54.0363C368.571 48.513 374.48 44.2742 381.416 41.3199C388.352 38.2371 395.61 36.6957 403.188 36.6957C412.693 36.6957 421.042 38.3655 428.236 41.7052C435.429 45.0449 441.016 49.7332 444.998 55.7703C448.98 61.8074 450.971 68.8721 450.971 76.9644C450.971 82.1023 450.072 87.176 448.274 92.1855C446.475 97.0666 443.714 102.076 439.989 107.214C436.392 112.224 431.704 117.683 425.923 123.591L392.976 157.502H452.32V182.549H355.02ZM517.964 184.861C510 184.861 502.422 183.384 495.229 180.43C488.035 177.347 481.934 173.044 476.925 167.521C471.915 161.997 468.575 155.511 466.906 148.061L493.302 139.198C495.485 145.363 498.697 150.052 502.935 153.263C507.174 156.346 512.184 157.887 517.964 157.887C522.717 157.887 526.763 156.988 530.102 155.19C533.57 153.391 536.268 150.887 538.195 147.675C540.121 144.336 541.085 140.482 541.085 136.115C541.085 131.748 540.121 128.023 538.195 124.94C536.396 121.729 533.763 119.288 530.295 117.618C526.955 115.82 522.845 114.921 517.964 114.921C515.138 114.921 512.312 115.242 509.486 115.884C506.66 116.527 504.091 117.426 501.779 118.582L494.843 104.131L531.644 64.0553H475.576V39.0078H565.169V62.1285L527.405 105.095L528.368 92.9562C536.974 92.9562 544.424 94.7545 550.718 98.3511C557.141 101.819 562.086 106.7 565.554 112.994C569.151 119.288 570.949 126.61 570.949 134.959C570.949 144.464 568.637 153.006 564.013 160.584C559.389 168.163 553.095 174.136 545.131 178.503C537.167 182.742 528.111 184.861 517.964 184.861Z" fill="black"/>
<path d="M0.50415 0.498901H103.06L139.19 36.6299H36.6344V139.186L0.50415 103.055V0.498901Z" fill="black"/>
<path d="M649.833 251.901L547.277 251.901L511.146 215.77L613.702 215.77L613.702 113.214L649.833 149.345L649.833 251.901Z" fill="black"/>
</svg>
