<svg width="48" height="53" viewBox="0 0 48 53" fill="none" xmlns="http://www.w3.org/2000/svg">
<path d="M12.5376 26.1725C11.4552 26.7903 10.0682 26.419 9.43984 25.3432C8.81146 24.2675 9.17957 22.8946 10.2621 22.2769L27.7315 12.3081C28.814 11.6904 30.201 12.0617 30.8294 13.1374C31.4577 14.2132 31.0896 15.586 30.0071 16.2037L12.5376 26.1725Z" fill="white"/>
<path d="M36.9946 11.7343C36.9946 10.4636 38.0277 9.43359 39.3021 9.43359C40.5765 9.43359 41.6095 10.4636 41.6095 11.7342L41.6095 32.2399C41.6095 33.5105 40.5765 34.5406 39.3021 34.5406C38.0277 34.5406 36.9946 33.5105 36.9946 32.2399L36.9946 11.7343Z" fill="white"/>
<path d="M38.0522 39.7163C39.1897 40.366 39.5794 41.8047 38.9227 42.9299C38.266 44.055 36.8115 44.4405 35.674 43.7909L17.3169 33.3072C16.1794 32.6576 15.7896 31.2189 16.4464 30.0937C17.1031 28.9686 18.5576 28.5831 19.6951 29.2327L38.0522 39.7163Z" fill="white"/>
<path d="M24.2002 12.7125L37.9001 4.88188C39.7132 3.84555 42.0316 4.46055 43.0784 6.25554C43.838 7.55799 43.7193 9.12381 42.9044 10.281C42.9225 10.4297 42.9318 10.5811 42.9318 10.7347L42.9318 15.4572L44.5367 14.5398C47.8485 12.6469 48.9833 8.45438 47.0712 5.17566L46.0524 3.42867C44.1403 0.149953 39.9055 -0.973421 36.5936 0.919547L27.6247 6.046C25.1775 7.44475 23.9191 10.099 24.2002 12.7125Z" fill="white"/>
<path d="M35.3502 19.7856C32.9251 21.061 30.0535 20.766 27.9661 19.227L32.1124 16.857L32.1297 16.8471L35.3502 15.0063L35.3502 19.7856Z" fill="white"/>
<path d="M35.3502 28.854C33.1649 29.7868 31.5614 31.8017 31.2287 34.2169L35.3502 36.5726L35.3502 28.854Z" fill="white"/>
<path d="M23.7919 29.9662C24.0912 27.434 22.9414 24.8525 20.6618 23.402L16.4846 25.7895L19.6307 27.5878L19.6457 27.5963L23.7919 29.9662Z" fill="white"/>
<path d="M13.0881 19.0639L8.5816 21.6397C7.13438 21.4848 5.66347 22.1669 4.88887 23.4952C3.84206 25.2901 4.46328 27.5854 6.2764 28.6217L19.9762 36.4522C17.8306 38 14.8794 38.2482 12.4322 36.8494L3.4633 31.723C0.15147 29.83 -0.983242 25.6375 0.928844 22.3588L1.94765 20.6118C3.85974 17.3331 8.09456 16.2097 11.4064 18.1027L13.0881 19.0639Z" fill="white"/>
<path d="M31.1648 42.8474L35.4235 45.2815C35.7698 47.0008 37.3025 48.2964 39.141 48.2964C41.2346 48.2964 42.9318 46.6162 42.9318 44.5435L42.9318 28.8827C45.3584 29.9484 47.051 32.3545 47.051 35.1519L47.051 45.4048C47.051 49.1907 43.9509 52.2598 40.1267 52.2598L38.0891 52.2598C34.2649 52.2598 31.1648 49.1907 31.1648 45.4048L31.1648 42.8474Z" fill="white"/>
</svg>
